<svg width="16" height="16" viewBox="0 0 16 16" fill="none" xmlns="http://www.w3.org/2000/svg">
<g clip-path="url(#clip0_21_4565)">
<path d="M15.3334 1.99999C14.695 2.45031 13.9882 2.79473 13.2401 3.01999C12.8386 2.55833 12.305 2.23112 11.7114 2.08261C11.1179 1.9341 10.4931 1.97145 9.92147 2.18963C9.34986 2.4078 8.85904 2.79626 8.5154 3.30247C8.17176 3.80868 7.99188 4.40821 8.00008 5.01999V5.68666C6.8285 5.71704 5.6676 5.4572 4.62075 4.93029C3.57391 4.40338 2.67363 3.62575 2.00008 2.66666C2.00008 2.66666 -0.666585 8.66666 5.33341 11.3333C3.96043 12.2653 2.32485 12.7326 0.666748 12.6667C6.66675 16 14.0001 12.6667 14.0001 4.99999C13.9995 4.81429 13.9816 4.62905 13.9467 4.44666C14.6272 3.77565 15.1073 2.92847 15.3334 1.99999Z" stroke="white" stroke-width="1.5" stroke-linecap="round" stroke-linejoin="round"/>
</g>
<defs>
<clipPath id="clip0_21_4565">
<rect width="16" height="16" fill="white"/>
</clipPath>
</defs>
</svg>
